<svg xmlns="http://www.w3.org/2000/svg" viewBox="0 0 256 256">
  <path fill="#6B737B" d="M122 196L146 208L122 220L98 208Z"/>
  <path fill="#4C535A" d="M98 208L122 220V229L98 217Z"/>
  <path fill="#848C95" d="M122 187L146 199L146 208L122 196Z"/>
  <path fill="#31373D" d="M122 220L146 208V217L122 229Z"/>
  <path fill="#949CA4" d="M146 199L170 187V196L146 208Z"/>
  <path fill="#AAB1B8" d="M122 187L146 199L170 187L146 175Z"/>

  <path fill="#56606A" d="M123 68L128 71L128 190L123 187Z"/>
  <path fill="#3D444C" d="M128 71L133 68V187L128 190Z"/>
  <path fill="#707983" d="M123 68L128 71L133 68L128 65Z"/>

  <path fill="#3B7CA6" d="M111 52L128 60L128 85L111 77Z"/>
  <path fill="#295D83" d="M128 60L151 49V74L128 85Z"/>
  <path fill="#5A9BC4" d="M111 52L134 41L151 49L128 60Z"/>

  <path fill="#F4D37A" d="M113 96L128 103L128 150L113 143Z"/>
  <path fill="#E0B552" d="M128 103L150 92V139L128 150Z"/>
  <path fill="#FFE39B" d="M113 96L135 85L150 92L128 103Z"/>

  <path fill="#FFFFFF" d="M117 104L128 109L128 118L117 113Z"/>
  <path fill="#E9EEF2" d="M128 109L146 100V109L128 118Z"/>
  <path fill="#F8FBFD" d="M117 104L135 95L146 100L128 109Z"/>

  <path fill="#FFFFFF" d="M117 120L128 125L128 134L117 129Z"/>
  <path fill="#E9EEF2" d="M128 125L146 116V125L128 134Z"/>
  <path fill="#F8FBFD" d="M117 120L135 111L146 116L128 125Z"/>

  <path fill="#FFFFFF" d="M117 136L128 141L128 146L117 141Z"/>
  <path fill="#E9EEF2" d="M128 141L146 132V137L128 146Z"/>
  <path fill="#F8FBFD" d="M117 136L135 127L146 132L128 141Z"/>
</svg>
