<svg xmlns="http://www.w3.org/2000/svg" viewBox="0 0 256 256">
  <path fill="#6B737B" d="M128 196L152 208L128 220L104 208Z"/>
  <path fill="#525A61" d="M104 208L128 220V229L104 217Z"/>
  <path fill="#3F464D" d="M128 220L152 208V217L128 229Z"/>

  <path fill="#4D5660" d="M121 182L128 186L128 201L121 197Z"/>
  <path fill="#394049" d="M128 186L135 182L135 197L128 201Z"/>
  <path fill="#69727B" d="M128 178L135 182L128 186L121 182Z"/>

  <path fill="#5A646E" d="M123 56L128 59L128 184L123 181Z"/>
  <path fill="#40474F" d="M128 59L133 56L133 181L128 184Z"/>
  <path fill="#737C86" d="M128 53L133 56L128 59L123 56Z"/>

  <path fill="#5A646E" d="M127 42L132 45L132 62L127 59Z"/>
  <path fill="#40474F" d="M132 45L146 38L146 55L132 62Z"/>
  <path fill="#737C86" d="M127 42L141 35L146 38L132 45Z"/>

  <path fill="#4B535B" d="M140 28L146 31L146 39L140 36Z"/>
  <path fill="#343A40" d="M146 31L160 24L160 32L146 39Z"/>
  <path fill="#6D7680" d="M140 28L154 21L160 24L146 31Z"/>

  <path fill="#F3D47A" d="M147 36L154 40L154 70L147 66Z"/>
  <path fill="#E8B958" d="M154 40L167 33L167 63L154 70Z"/>
  <path fill="#FFE7A5" d="M147 36L160 29L167 33L154 40Z"/>
  <path fill="#C99736" d="M147 66L154 70L167 63L160 59Z"/>

  <path fill="#2E343A" d="M144 32L148 34L148 73L144 71Z"/>
  <path fill="#20252A" d="M148 34L150 33L150 72L148 73Z"/>
  <path fill="#2E343A" d="M164 23L168 25L168 65L164 63Z"/>
  <path fill="#20252A" d="M168 25L170 24L170 63L168 65Z"/>

  <path fill="#8B949D" d="M145 72L154 77L154 81L145 76Z"/>
  <path fill="#6E7780" d="M154 77L168 70L168 74L154 81Z"/>
  <path fill="#A7B0B7" d="M145 72L159 65L168 70L154 77Z"/>
</svg>
