<svg xmlns="http://www.w3.org/2000/svg" viewBox="0 0 256 256">
  <path fill="#6DAB5B" d="M128 184L170 205L128 226L86 205Z"/>
  <path fill="#5A8D4A" d="M86 205L128 226V238L86 217Z"/>
  <path fill="#4B743E" d="M128 226L170 205V217L128 238Z"/>

  <path fill="#8D5B3E" d="M119 122L128 127V186L119 181Z"/>
  <path fill="#73452F" d="M128 127L137 122V181L128 186Z"/>
  <path fill="#A56B48" d="M128 117L137 122L128 127L119 122Z"/>
  <path fill="#8D5B3E" d="M120 133L126 137L117 151L111 147Z"/>
  <path fill="#73452F" d="M130 137L136 133L145 147L139 151Z"/>

  <path fill="#2F7A47" d="M84 94C63 97 47 110 43 128C39 145 48 160 63 169C77 178 95 177 108 168C121 159 128 145 126 131C124 116 107 96 84 94Z"/>
  <path fill="#45915B" d="M172 94C195 97 211 110 214 128C217 145 208 160 193 169C179 178 161 177 148 168C135 159 128 145 130 131C132 116 149 96 172 94Z"/>
  <path fill="#67BC79" d="M128 36C150 36 171 46 181 64C191 82 188 102 173 116C159 129 143 137 128 139C113 137 97 129 83 116C68 102 65 82 75 64C85 46 106 36 128 36Z"/>
  <path fill="#3B8A56" d="M111 126C96 126 83 134 77 146C71 158 74 171 85 180C96 188 111 192 128 192C145 192 160 188 171 180C182 171 185 158 179 146C173 134 160 126 145 126C139 137 123 137 111 126Z"/>

  <path fill="#8FD79A" d="M99 56C84 60 72 70 68 83C64 95 70 105 81 111C92 116 106 112 114 102C122 93 123 79 118 69C113 59 107 54 99 56Z"/>
  <path fill="#8AD59A" d="M157 58C170 61 181 71 184 83C187 95 182 105 172 111C161 117 148 115 139 106C130 97 128 83 133 72C138 62 147 56 157 58Z"/>
  <path fill="#9BE3A7" d="M128 71C141 71 152 78 156 89C160 100 156 112 146 118C136 124 120 124 110 118C100 112 96 100 100 89C104 78 115 71 128 71Z"/>
  <path fill="#7ACB8B" d="M75 108C65 111 57 118 55 127C53 136 57 144 66 149C75 154 87 153 95 147C103 141 106 132 103 123C100 114 87 107 75 108Z"/>
  <path fill="#73C484" d="M181 108C192 111 200 118 202 127C204 136 200 144 191 149C182 154 170 153 162 147C154 141 151 132 154 123C157 114 169 107 181 108Z"/>
  <path fill="#5CAE70" d="M97 94C89 98 85 106 86 114C87 122 93 129 101 131C109 133 118 129 123 121C128 113 127 104 122 98C116 91 105 89 97 94Z"/>
  <path fill="#5CAE70" d="M159 94C167 98 171 106 170 114C169 122 163 129 155 131C147 133 138 129 133 121C128 113 129 104 134 98C140 91 151 89 159 94Z"/>
</svg>
