<svg xmlns="http://www.w3.org/2000/svg" viewBox="0 0 256 256">
  <path fill="#7F5A3E" d="M91 149L140 173L113 186L64 162Z"/>
  <path fill="#5F402D" d="M64 162L113 186V193L64 169Z"/>
  <path fill="#9A6F4B" d="M91 142L140 166L140 173L91 149Z"/>
  <path fill="#B98658" d="M118 129L167 153L140 166L91 142Z"/>
  <path fill="#7A533A" d="M140 166L167 153V160L140 173Z"/>

  <path fill="#7F5A3E" d="M94 131L143 155L116 168L67 144Z"/>
  <path fill="#5F402D" d="M67 144L116 168V175L67 151Z"/>
  <path fill="#9A6F4B" d="M94 124L143 148L143 155L94 131Z"/>
  <path fill="#B98658" d="M121 111L170 135L143 148L94 124Z"/>
  <path fill="#7A533A" d="M143 148L170 135V142L143 155Z"/>

  <path fill="#7F5A3E" d="M97 113L146 137L119 150L70 126Z"/>
  <path fill="#5F402D" d="M70 126L119 150V157L70 133Z"/>
  <path fill="#9A6F4B" d="M97 106L146 130L146 137L97 113Z"/>
  <path fill="#B98658" d="M124 93L173 117L146 130L97 106Z"/>
  <path fill="#7A533A" d="M146 130L173 117V124L146 137Z"/>

  <path fill="#5A646E" d="M86 150L92 153L92 191L86 188Z"/>
  <path fill="#3F474F" d="M92 153L99 149L99 187L92 191Z"/>
  <path fill="#727C86" d="M86 150L93 146L99 149L92 153Z"/>

  <path fill="#5A646E" d="M154 116L160 119L160 157L154 154Z"/>
  <path fill="#3F474F" d="M160 119L167 115L167 153L160 157Z"/>
  <path fill="#727C86" d="M154 116L161 112L167 115L160 119Z"/>

  <path fill="#5A646E" d="M107 88L113 91L113 129L107 126Z"/>
  <path fill="#3F474F" d="M113 91L120 87L120 125L113 129Z"/>
  <path fill="#727C86" d="M107 88L114 84L120 87L113 91Z"/>

  <path fill="#5A646E" d="M71 159L77 162L77 202L71 199Z"/>
  <path fill="#3F474F" d="M77 162L84 158L84 198L77 202Z"/>
  <path fill="#727C86" d="M71 159L78 155L84 158L77 162Z"/>

  <path fill="#5A646E" d="M139 125L145 128L145 168L139 165Z"/>
  <path fill="#3F474F" d="M145 128L152 124L152 164L145 168Z"/>
  <path fill="#727C86" d="M139 125L146 121L152 124L145 128Z"/>

  <path fill="#5A646E" d="M103 97L109 100L109 140L103 137Z"/>
  <path fill="#3F474F" d="M109 100L116 96L116 136L109 140Z"/>
  <path fill="#727C86" d="M103 97L110 93L116 96L109 100Z"/>
</svg>
