<svg xmlns="http://www.w3.org/2000/svg" viewBox="0 0 256 256">
  <path fill="#6C737A" d="M104 188L128 200L104 212L80 200Z"/>
  <path fill="#4C535A" d="M80 200L104 212V221L80 209Z"/>
  <path fill="#858D95" d="M104 179L128 191L128 200L104 188Z"/>
  <path fill="#31373D" d="M104 212L128 200V209L104 221Z"/>
  <path fill="#959DA5" d="M128 191L152 179V188L128 200Z"/>
  <path fill="#AAB1B8" d="M104 179L128 191L152 179L128 167Z"/>

  <path fill="#B53E35" d="M104 107L128 119L128 187L104 175Z"/>
  <path fill="#8D2A24" d="M128 119L152 107V175L128 187Z"/>
  <path fill="#D5574A" d="M104 107L128 119L152 107L128 95Z"/>

  <path fill="#E06C58" d="M104 107L128 95L152 107L128 111Z"/>

  <path fill="#F2E7D2" d="M112 127L128 135L128 151L112 143Z"/>
  <path fill="#E1D3B7" d="M128 135L144 127V143L128 151Z"/>
  <path fill="#FFF4DE" d="M112 127L128 135L144 127L128 119Z"/>

  <path fill="#6C737A" d="M123 70L128 73L128 108L123 105Z"/>
  <path fill="#4C535A" d="M128 73L133 70V105L128 108Z"/>
  <path fill="#858D95" d="M123 70L128 73L133 70L128 67Z"/>

  <path fill="#D9B14B" d="M116 91L128 97L128 104L116 98Z"/>
  <path fill="#BE9131" d="M128 97L145 89V96L128 104Z"/>
  <path fill="#F2CB69" d="M116 91L133 83L145 89L128 97Z"/>
</svg>
