<svg xmlns="http://www.w3.org/2000/svg" viewBox="0 0 256 256">
  <path fill="#5A646E" d="M108 186L132 198L108 210L84 198Z"/>
  <path fill="#41484F" d="M84 198L108 210V219L84 207Z"/>
  <path fill="#707A84" d="M108 177L132 189L132 198L108 186Z"/>
  <path fill="#2E353B" d="M108 210L132 198V207L108 219Z"/>
  <path fill="#7F8992" d="M132 189L156 177V186L132 198Z"/>
  <path fill="#8D979F" d="M108 177L132 189L156 177L132 165Z"/>

  <path fill="#4E8FB4" d="M108 99L132 111L132 185L108 173Z"/>
  <path fill="#2F6788" d="M132 111L156 99V173L132 185Z"/>
  <path fill="#6DA9C8" d="M108 99L132 111L156 99L132 87Z"/>

  <path fill="#F0C35B" d="M116 120L132 128L132 160L116 152Z"/>
  <path fill="#D69F35" d="M132 128L148 120V152L132 160Z"/>
  <path fill="#FFD97D" d="M116 120L132 128L148 120L132 112Z"/>

  <path fill="#5A646E" d="M112 87L132 97L132 108L112 98Z"/>
  <path fill="#41484F" d="M132 97L152 87V98L132 108Z"/>
  <path fill="#78828C" d="M112 87L132 97L152 87L132 77Z"/>

  <path fill="#3A4148" d="M121 73L132 79L132 91L121 85Z"/>
  <path fill="#262B30" d="M132 79L143 73V85L132 91Z"/>
  <path fill="#59616A" d="M121 73L132 79L143 73L132 67Z"/>

  <path fill="#3A4148" d="M126 62L132 65L132 74L126 71Z"/>
  <path fill="#262B30" d="M132 65L138 62V71L132 74Z"/>
  <path fill="#59616A" d="M126 62L132 65L138 62L132 59Z"/>
</svg>
